<svg id="레이어_5" data-name="레이어 5" xmlns="http://www.w3.org/2000/svg" viewBox="0 0 24 24"><defs><style>.cls-1{fill:#460e51;}.cls-2{fill:#7d00d4;}</style></defs><path class="cls-1" d="M4.92,19.85A1.81,1.81,0,0,1,3.11,18V5.81A1.81,1.81,0,0,1,4.92,4H5a1.78,1.78,0,0,1,1.2.46l6.12,5.36a.57.57,0,0,1,.05.79.56.56,0,0,1-.79.05L5.41,5.29A.71.71,0,0,0,5,5.12h0a.69.69,0,0,0-.69.69V18a.69.69,0,0,0,.69.69.66.66,0,0,0,.45-.17l7.55-6.91a.56.56,0,1,1,.75.83L6.12,19.39A1.8,1.8,0,0,1,4.92,19.85Z"/><path class="cls-2" d="M16.14,14.06a.59.59,0,0,1-.33-.11l-2.08-1.49H8.63a.56.56,0,0,1,0-1.12h5.28a.51.51,0,0,1,.32.1L16,12.72l.76-1,.11-.12a.89.89,0,0,1,1.05,0l.45.34-.19-.6a.73.73,0,0,1,.27-.84l.54-.4h-.67a.74.74,0,0,1-.71-.52l-.21-.63-.21.63a.75.75,0,0,1-.71.52h-.67l.54.4a.56.56,0,0,1-.66.9L14.26,10.3A.74.74,0,0,1,14,9.46a.75.75,0,0,1,.72-.52h1.53l.47-1.45A.75.75,0,0,1,17.42,7h0a.74.74,0,0,1,.71.52l.48,1.45h1.53a.75.75,0,0,1,.44,1.36l-1.24.9.47,1.45a.75.75,0,0,1-1.17.83l-1.16-.86-.89,1.21A.56.56,0,0,1,16.14,14.06Zm3.17-1.47Z"/></svg>