<svg xmlns="http://www.w3.org/2000/svg" viewBox="0 0 80 128.94"><defs><style>.cls-1{font-size:18px;font-family:JalnanOTF-KSCpc-EUC-H, Jalnan OTF;letter-spacing:-0.07em;}.cls-1,.cls-3{fill:#8a31c5;}.cls-2{fill:#400086;}</style></defs><g id="레이어_2" data-name="레이어 2"><g id="레이어_1-2" data-name="레이어 1"><text class="cls-1" transform="translate(22.46 102.57)">골라<tspan class="cls-2"><tspan x="0" y="18">드림</tspan></tspan></text><path class="cls-2" d="M72.94,0H7.06A7.06,7.06,0,0,0,0,7.06V72.94A7.06,7.06,0,0,0,7.06,80H72.94A7.06,7.06,0,0,0,80,72.94V7.06A7.06,7.06,0,0,0,72.94,0ZM9.27,13.87V11.13A1.14,1.14,0,0,1,10.41,10h7.73a1.13,1.13,0,0,1,1.13,1.13v2.74A1.13,1.13,0,0,1,18.14,15H10.41A1.14,1.14,0,0,1,9.27,13.87ZM40,65A25,25,0,1,1,65,40,25,25,0,0,1,40,65Zm30.53-.93L69.14,66a1,1,0,0,0-.2.61V69a1.05,1.05,0,0,1-1.37,1l-2.25-.73a1,1,0,0,0-.64,0L62.43,70a1.05,1.05,0,0,1-1.37-1V66.59a1,1,0,0,0-.2-.61l-1.38-1.91A1,1,0,0,1,60,62.46l2.24-.73a1.07,1.07,0,0,0,.53-.38l1.38-1.91a1,1,0,0,1,1.7,0l1.38,1.91a1.07,1.07,0,0,0,.53.38l2.24.73A1,1,0,0,1,70.53,64.07Z"/><path class="cls-3" d="M41.08,31.93A1,1,0,0,0,40,30.85c-1.08,0-1.08.79-1.08,1.08A5.54,5.54,0,0,0,40,34.74,5.54,5.54,0,0,0,41.08,31.93Z"/><polygon class="cls-3" points="50.22 48.61 40 40.94 29.78 48.61 50.22 48.61"/><path class="cls-3" d="M40,58.75a18.64,18.64,0,0,0,14.06-6.38H25.94A18.66,18.66,0,0,0,40,58.75Z"/><path class="cls-3" d="M40,21.25A18.74,18.74,0,0,0,23.39,48.69l14.74-11a9.74,9.74,0,0,1-2.43-5.71,4.3,4.3,0,1,1,8.6,0,9.74,9.74,0,0,1-2.43,5.71l14.74,11A18.74,18.74,0,0,0,40,21.25Z"/><path class="cls-3" d="M25,125.65l.4.55a.29.29,0,0,0,.15.12l.65.21a.31.31,0,0,1,.16.47l-.41.55a.37.37,0,0,0,0,.18v.69a.31.31,0,0,1-.4.29l-.66-.22a.28.28,0,0,0-.18,0l-.66.22a.3.3,0,0,1-.39-.29v-.69a.39.39,0,0,0-.06-.18l-.41-.55a.31.31,0,0,1,.16-.47l.65-.21a.29.29,0,0,0,.15-.12l.4-.55A.31.31,0,0,1,25,125.65Z"/><path class="cls-3" d="M54.31,125.65l.4.55a.29.29,0,0,0,.15.12l.66.21a.31.31,0,0,1,.15.47l-.41.55a.37.37,0,0,0,0,.18v.69a.31.31,0,0,1-.4.29l-.65-.22a.31.31,0,0,0-.19,0l-.66.22a.3.3,0,0,1-.39-.29v-.69a.3.3,0,0,0-.06-.18l-.41-.55a.31.31,0,0,1,.16-.47l.65-.21a.29.29,0,0,0,.15-.12l.41-.55A.3.3,0,0,1,54.31,125.65Z"/><path class="cls-3" d="M47,125.65l.4.55a.29.29,0,0,0,.15.12l.66.21a.31.31,0,0,1,.15.47l-.41.55a.37.37,0,0,0-.05.18v.69a.31.31,0,0,1-.4.29l-.66-.22a.28.28,0,0,0-.18,0l-.66.22a.3.3,0,0,1-.39-.29v-.69a.3.3,0,0,0-.06-.18l-.41-.55a.31.31,0,0,1,.16-.47l.65-.21a.29.29,0,0,0,.15-.12l.41-.55A.3.3,0,0,1,47,125.65Z"/><path class="cls-3" d="M39.63,125.65l.4.55a.29.29,0,0,0,.15.12l.66.21A.31.31,0,0,1,41,127l-.41.55a.37.37,0,0,0,0,.18v.69a.31.31,0,0,1-.4.29l-.66-.22a.28.28,0,0,0-.18,0l-.66.22a.3.3,0,0,1-.39-.29v-.69a.3.3,0,0,0-.06-.18l-.41-.55a.31.31,0,0,1,.16-.47l.65-.21a.29.29,0,0,0,.15-.12l.4-.55A.31.31,0,0,1,39.63,125.65Z"/><path class="cls-3" d="M32.29,125.65l.4.55a.29.29,0,0,0,.15.12l.66.21a.31.31,0,0,1,.15.47l-.41.55a.37.37,0,0,0-.05.18v.69a.31.31,0,0,1-.4.29l-.66-.22a.28.28,0,0,0-.18,0l-.66.22a.3.3,0,0,1-.39-.29v-.69a.3.3,0,0,0-.06-.18l-.41-.55a.31.31,0,0,1,.16-.47l.65-.21a.29.29,0,0,0,.15-.12l.4-.55A.31.31,0,0,1,32.29,125.65Z"/></g></g></svg>