<svg xmlns="http://www.w3.org/2000/svg" viewBox="0 0 150.57 113.64"><defs><style>.cls-1{fill:#460e51;}.cls-2{fill:#7d00d4;}.cls-3{fill:#7f498c;}</style></defs><g id="레이어_2" data-name="레이어 2"><g id="레이어_2-2" data-name="레이어 2"><path class="cls-1" d="M43.05,70.83A8.09,8.09,0,0,1,35,62.75V8.08A8.09,8.09,0,0,1,43.05,0h.15a8,8,0,0,1,5.36,2L75.89,26a2.5,2.5,0,1,1-3.3,3.75l-27.33-24A3.14,3.14,0,0,0,43.2,5h-.15A3.08,3.08,0,0,0,40,8.08V62.75a3.07,3.07,0,0,0,5.12,2.3L78.8,34.19a2.5,2.5,0,1,1,3.37,3.69L48.43,68.77A8.08,8.08,0,0,1,43.05,70.83Z"/><path class="cls-2" d="M93.19,44.94a2.46,2.46,0,0,1-1.45-.47l-9.32-6.68H59.62a2.5,2.5,0,0,1,0-5h23.6a2.51,2.51,0,0,1,1.46.46l8,5.71L96,34.33a2.38,2.38,0,0,1,.52-.53,4,4,0,0,1,4.69,0l2,1.49-.87-2.69a3.36,3.36,0,0,1,1.22-3.76L106,27.09h-3a3.35,3.35,0,0,1-3.2-2.33l-.93-2.84L98,24.76a3.36,3.36,0,0,1-3.2,2.33h-3l2.42,1.75a2.5,2.5,0,0,1-2.94,4.05l-6.49-4.72a3.36,3.36,0,0,1,2-6.08h6.84l2.12-6.51a3.34,3.34,0,0,1,3.19-2.32h0a3.34,3.34,0,0,1,3.19,2.32l2.12,6.51h6.84a3.36,3.36,0,0,1,2,6.08l-5.53,4,2.1,6.45a3.37,3.37,0,0,1-5.22,3.73l-5.2-3.87-4,5.42A2.52,2.52,0,0,1,93.19,44.94Zm14.18-6.57h0Z"/><path class="cls-1" d="M7.73,90.41a1.75,1.75,0,0,0-.85-.73,3.36,3.36,0,0,0-1.31-.25,2.86,2.86,0,0,0-1.51.37,2.94,2.94,0,0,0-.94,1A3.87,3.87,0,0,0,2.63,92,7.14,7.14,0,0,0,2.5,93.4a7,7,0,0,0,.13,1.35A4,4,0,0,0,3.12,96a2.85,2.85,0,0,0,1,.94,2.86,2.86,0,0,0,1.51.36A5.23,5.23,0,0,0,7,97.15a4.54,4.54,0,0,0,1-.39V94.71H6.23a.71.71,0,0,1-.66-.34,1.42,1.42,0,0,1,0-1.52.74.74,0,0,1,.67-.35H9.35a1,1,0,0,1,.63.18,1.13,1.13,0,0,1,.33.37,1.44,1.44,0,0,1,.14.55v3.7a1.76,1.76,0,0,1-.14.61,2.18,2.18,0,0,1-.33.51,1.41,1.41,0,0,1-.63.41,13.32,13.32,0,0,1-1.94.52,10,10,0,0,1-1.87.18A5.87,5.87,0,0,1,3,99,4.84,4.84,0,0,1,1.3,97.67a5.43,5.43,0,0,1-1-2A8.39,8.39,0,0,1,0,93.4a8.55,8.55,0,0,1,.32-2.35,5.56,5.56,0,0,1,1-2A4.71,4.71,0,0,1,3,87.74a5.79,5.79,0,0,1,2.51-.5,6.22,6.22,0,0,1,2.56.49,3.87,3.87,0,0,1,1.78,1.55,1.6,1.6,0,0,1,.19.76,1,1,0,0,1-.2.55,1.12,1.12,0,0,1-.47.35,1.5,1.5,0,0,1-.59.1,1.47,1.47,0,0,1-.59-.17A1.24,1.24,0,0,1,7.73,90.41Z"/><path class="cls-1" d="M24.81,93.4a8.39,8.39,0,0,1-.32,2.32,5.94,5.94,0,0,1-1,2A4.79,4.79,0,0,1,21.89,99a5.12,5.12,0,0,1-2.32.5,5.12,5.12,0,0,1-2.32-.5,4.7,4.7,0,0,1-1.63-1.36,5.94,5.94,0,0,1-1-2,8.39,8.39,0,0,1-.32-2.32,8.55,8.55,0,0,1,.32-2.35,6.09,6.09,0,0,1,1-2,4.57,4.57,0,0,1,1.63-1.35,5.12,5.12,0,0,1,2.32-.5,5.12,5.12,0,0,1,2.32.5,4.65,4.65,0,0,1,1.63,1.35,6.09,6.09,0,0,1,1,2A8.55,8.55,0,0,1,24.81,93.4Zm-2.48,0A7.32,7.32,0,0,0,22.19,92a4,4,0,0,0-.44-1.28,2.77,2.77,0,0,0-.85-1,2.59,2.59,0,0,0-2.67,0,2.71,2.71,0,0,0-.83,1A4,4,0,0,0,17,92a7.29,7.29,0,0,0-.13,1.37A7,7,0,0,0,17,94.75,4,4,0,0,0,17.4,96a2.68,2.68,0,0,0,.83.94,2.59,2.59,0,0,0,2.67,0,2.73,2.73,0,0,0,.85-.94,4,4,0,0,0,.44-1.26A7,7,0,0,0,22.33,93.4Z"/><path class="cls-1" d="M29.88,99.35a1,1,0,0,1-.63-.17,1.16,1.16,0,0,1-.33-.38,1.44,1.44,0,0,1-.14-.55v-10a.65.65,0,0,1,.19-.47,1.1,1.1,0,0,1,.46-.29,1.63,1.63,0,0,1,.59-.1,1.89,1.89,0,0,1,.6.09,1.08,1.08,0,0,1,.46.28.67.67,0,0,1,.19.47v8.88h4.55a.75.75,0,0,1,.67.35,1.34,1.34,0,0,1,.22.75,1.3,1.3,0,0,1-.22.75.74.74,0,0,1-.66.35Z"/><path class="cls-1" d="M41.52,99.35a1,1,0,0,1-.63-.17,1.45,1.45,0,0,1-.33-.38,1.43,1.43,0,0,1-.13-.55v-10a.64.64,0,0,1,.18-.47,1.1,1.1,0,0,1,.46-.29,1.64,1.64,0,0,1,.6-.1,1.87,1.87,0,0,1,.59.09,1,1,0,0,1,.46.28.63.63,0,0,1,.19.47v8.88h4.55a.74.74,0,0,1,.67.35,1.34,1.34,0,0,1,.22.75,1.3,1.3,0,0,1-.22.75.72.72,0,0,1-.66.35Z"/><path class="cls-1" d="M56,88.36a1.44,1.44,0,0,1,.35-.54,2,2,0,0,1,.42-.28,1.47,1.47,0,0,1,.49-.12h.6a1.52,1.52,0,0,1,.5.12,2,2,0,0,1,.41.28,1.59,1.59,0,0,1,.36.54L63,98.17a.57.57,0,0,1,0,.48,1.1,1.1,0,0,1-.34.38,2.21,2.21,0,0,1-.54.24,2.16,2.16,0,0,1-.61.07,1.18,1.18,0,0,1-.53-.12.63.63,0,0,1-.34-.34l-.93-2.48H55.47l-.91,2.39a.7.7,0,0,1-.33.39,1.4,1.4,0,0,1-.55.15,1.85,1.85,0,0,1-.62,0,1.63,1.63,0,0,1-.55-.23,1,1,0,0,1-.35-.37.6.6,0,0,1,0-.49Zm.32,5.83h2.5l-1.26-3.32Z"/><path class="cls-2" d="M71,87.42a7.56,7.56,0,0,1,2.65.42,4.85,4.85,0,0,1,3,3.1A7.85,7.85,0,0,1,77,93.4a7.44,7.44,0,0,1-.38,2.42,5,5,0,0,1-1.13,1.88,5,5,0,0,1-1.87,1.22,7.45,7.45,0,0,1-2.62.43H68.22a1,1,0,0,1-.63-.17,1.16,1.16,0,0,1-.33-.38,1.44,1.44,0,0,1-.14-.55V88.51a1.35,1.35,0,0,1,.14-.54,1.07,1.07,0,0,1,.33-.38,1,1,0,0,1,.63-.17Zm3.51,6a6.13,6.13,0,0,0-.13-1.23,3.62,3.62,0,0,0-.52-1.23,3,3,0,0,0-1-1,3.42,3.42,0,0,0-1.7-.38H69.61v7.54h1.55a3.32,3.32,0,0,0,1.7-.38,3.08,3.08,0,0,0,1-1,3.71,3.71,0,0,0,.52-1.23A5.82,5.82,0,0,0,74.54,93.4Z"/><path class="cls-2" d="M81,88.53a1.4,1.4,0,0,1,.14-.55,1.07,1.07,0,0,1,.33-.38,1,1,0,0,1,.63-.18h3.32a7.72,7.72,0,0,1,1.7.17,3.62,3.62,0,0,1,1.4.59,2.89,2.89,0,0,1,1,1.12A3.88,3.88,0,0,1,89.82,91a4.39,4.39,0,0,1-.17,1.27,3.32,3.32,0,0,1-.48,1,2.78,2.78,0,0,1-.74.67,4.19,4.19,0,0,1-1,.43l2.31,4a.82.82,0,0,1,.16.55.49.49,0,0,1-.2.28.83.83,0,0,1-.45.13h-.94a1.2,1.2,0,0,1-.55-.12,1.61,1.61,0,0,1-.38-.27,2,2,0,0,1-.32-.38l-2.19-4H83.48v3.88a.64.64,0,0,1-.18.47,1.08,1.08,0,0,1-.46.28,1.89,1.89,0,0,1-.6.09,1.63,1.63,0,0,1-.59-.1,1,1,0,0,1-.46-.29.62.62,0,0,1-.19-.48ZM87.34,91a1.23,1.23,0,0,0-.18-.7,1.45,1.45,0,0,0-.45-.44,1.64,1.64,0,0,0-.58-.23,3.19,3.19,0,0,0-.59-.06H83.48v2.81h2.06a3.13,3.13,0,0,0,.59,0,1.82,1.82,0,0,0,.58-.21,1.29,1.29,0,0,0,.45-.42A1.21,1.21,0,0,0,87.34,91Z"/><path class="cls-2" d="M95.13,99.35a1,1,0,0,1-.63-.17,1.16,1.16,0,0,1-.33-.38,1.28,1.28,0,0,1-.14-.55V88.51a1.2,1.2,0,0,1,.14-.54,1.07,1.07,0,0,1,.33-.38,1,1,0,0,1,.63-.17h6.5a.74.74,0,0,1,.67.34,1.41,1.41,0,0,1,0,1.51.73.73,0,0,1-.66.34H96.51v2.46h4.83a.74.74,0,0,1,.67.34,1.41,1.41,0,0,1,0,1.51.72.72,0,0,1-.66.34H96.51v2.89h5.27a.75.75,0,0,1,.67.35,1.34,1.34,0,0,1,.22.75,1.3,1.3,0,0,1-.22.75.74.74,0,0,1-.66.35Z"/><path class="cls-2" d="M110.35,88.36a1.44,1.44,0,0,1,.35-.54,2,2,0,0,1,.42-.28,1.47,1.47,0,0,1,.49-.12h.6a1.52,1.52,0,0,1,.5.12,2.3,2.3,0,0,1,.41.28,1.58,1.58,0,0,1,.35.54l3.84,9.81a.57.57,0,0,1,0,.48A1.1,1.1,0,0,1,117,99a2.21,2.21,0,0,1-.54.24,2.16,2.16,0,0,1-.61.07,1.18,1.18,0,0,1-.53-.12.63.63,0,0,1-.34-.34L114,96.4h-4.18l-.91,2.39a.7.7,0,0,1-.33.39,1.4,1.4,0,0,1-.55.15,1.91,1.91,0,0,1-.63,0,1.66,1.66,0,0,1-.54-.23,1,1,0,0,1-.35-.37.6.6,0,0,1,0-.49Zm.31,5.83h2.51l-1.26-3.32Z"/><path class="cls-2" d="M129.62,88.51a2.05,2.05,0,0,1,.31-.54,1.66,1.66,0,0,1,.44-.38,1.19,1.19,0,0,1,.67-.17h1a1,1,0,0,1,.63.17A1.07,1.07,0,0,1,133,88a1.35,1.35,0,0,1,.14.54v10A.64.64,0,0,1,133,99a1,1,0,0,1-.45.28,1.92,1.92,0,0,1-.59.09,1.63,1.63,0,0,1-.59-.1,1,1,0,0,1-.46-.29.69.69,0,0,1-.17-.48V92l-2,6.34a1.05,1.05,0,0,1-.54.63,1.65,1.65,0,0,1-.87.21,1.87,1.87,0,0,1-.87-.22,1.06,1.06,0,0,1-.54-.65l-2-6.31v6.5a.68.68,0,0,1-.17.47,1,1,0,0,1-.46.28,1.87,1.87,0,0,1-.59.09,1.66,1.66,0,0,1-.59-.1,1.06,1.06,0,0,1-.45-.29.65.65,0,0,1-.18-.48v-10a1.35,1.35,0,0,1,.14-.54,1.07,1.07,0,0,1,.33-.38,1,1,0,0,1,.63-.17h1a1.23,1.23,0,0,1,.68.17,1.66,1.66,0,0,1,.44.38,2.38,2.38,0,0,1,.31.54l2.31,7Z"/><path class="cls-2" d="M136.53,99.54a1,1,0,0,1-.32-2l1-.34a10.75,10.75,0,0,0,5.26-3.86,1,1,0,0,1,.21-.21,1.64,1.64,0,0,1,2,0l1.25.94-.52-1.63a1.39,1.39,0,0,1,.5-1.56l1.44-1h-1.78a1.4,1.4,0,0,1-1.32-1l-.55-1.69-.55,1.69a1.4,1.4,0,0,1-1.33,1H140l1.44,1a1,1,0,0,1,.22,1.4,1,1,0,0,1-1.4.22l-3-2.14a1.39,1.39,0,0,1,.82-2.52h3.2l1-3a1.39,1.39,0,0,1,2.65,0l1,3h3.21a1.37,1.37,0,0,1,1.32,1,1.39,1.39,0,0,1-.5,1.56l-2.6,1.88,1,3a1.39,1.39,0,0,1-2.16,1.54L143.75,95a12.89,12.89,0,0,1-5.9,4.14l-1,.33A.87.87,0,0,1,136.53,99.54Z"/><path class="cls-3" d="M41.39,109.32v.52H34.92v-.52h2.65v-1.25h.66v1.25Zm-5,3.7h4.43v.52H35.7v-1.8H40V111H35.68v-.52H40.6v1.72H36.35Zm3.44-4.17a8.23,8.23,0,0,0,.13-1.58H35.68v-.53h4.89v.47a8.07,8.07,0,0,1-.14,1.7Z"/><path class="cls-3" d="M58.79,111.36a16.07,16.07,0,0,0,3.3-.26l.07.55a18.28,18.28,0,0,1-3.44.25h-.57v-2.74h2.57v-1.5h-2.6v-.54h3.25v2.58H58.79Zm5.76-1.51H63.38v3.79h-.66v-7.19h.66v2.85h1.17Z"/><path class="cls-3" d="M87.3,112.12v.54H80.79v-.54Zm-.75-1.69H81.62v-3.32h4.85v.55h-4.2v2.23h4.28Z"/><path class="cls-3" d="M108.17,110.13a19.29,19.29,0,0,1-3.48.24h-.57v-2h2.59v-.92h-2.62v-.53h3.27v2h-2.6v1a19.87,19.87,0,0,0,3.34-.22Zm-3.18,1h4.64v2.42H105Zm.64,1.89H109v-1.37h-3.36Zm4-6.54v4.25H109v-4.25Z"/></g></g></svg>