<svg xmlns="http://www.w3.org/2000/svg" viewBox="0 0 150.57 113.64"><g id="레이어_2" data-name="레이어 2"><g id="레이어_2-2" data-name="레이어 2"><path d="M95.21,43.92l4-5.42,5.2,3.87a3.37,3.37,0,0,0,5.22-3.73l-2.1-6.45,5.53-4a3.36,3.36,0,0,0-2-6.08h-6.84l-2.12-6.51a3.34,3.34,0,0,0-3.19-2.32h0a3.34,3.34,0,0,0-3.19,2.32l-2.12,6.51H86.75a3.36,3.36,0,0,0-2,6.08l6.49,4.72a2.5,2.5,0,0,0,2.94-4.05l-2.42-1.75h3A3.36,3.36,0,0,0,98,24.76l.92-2.84.93,2.84a3.35,3.35,0,0,0,3.2,2.33h3l-2.42,1.75a3.36,3.36,0,0,0-1.22,3.76l.87,2.69-2-1.49a4,4,0,0,0-4.69,0,2.61,2.61,0,0,0-.52.53L92.64,39l-8-5.71a2.51,2.51,0,0,0-1.46-.46H59.62a2.5,2.5,0,0,0,0,5H74.87L45.09,65.05A3.07,3.07,0,0,1,40,62.75V8.08A3.08,3.08,0,0,1,43.05,5h.15a3.14,3.14,0,0,1,2.06.78l27.33,24A2.5,2.5,0,1,0,75.89,26L48.56,2A8,8,0,0,0,43.2,0h-.15A8.09,8.09,0,0,0,35,8.08V62.75a8.07,8.07,0,0,0,13.46,6L82.17,37.88l.09-.09h.16l9.32,6.68a2.46,2.46,0,0,0,1.45.47A2.52,2.52,0,0,0,95.21,43.92Z"/><path d="M10,92.68a1,1,0,0,0-.63-.18H6.24a.74.74,0,0,0-.67.35,1.42,1.42,0,0,0,0,1.52.71.71,0,0,0,.66.34H8v2.05a4.54,4.54,0,0,1-1,.39,5.23,5.23,0,0,1-1.41.17A2.86,2.86,0,0,1,4.07,97a2.85,2.85,0,0,1-1-.94,4,4,0,0,1-.49-1.27A7,7,0,0,1,2.5,93.4,7.14,7.14,0,0,1,2.63,92a3.87,3.87,0,0,1,.49-1.28,2.94,2.94,0,0,1,.94-1,2.86,2.86,0,0,1,1.51-.37,3.36,3.36,0,0,1,1.31.25,1.75,1.75,0,0,1,.85.73,1.24,1.24,0,0,0,.48.46A1.47,1.47,0,0,0,8.8,91a1.5,1.5,0,0,0,.59-.1,1.12,1.12,0,0,0,.47-.35,1,1,0,0,0,.2-.55,1.6,1.6,0,0,0-.19-.76,3.87,3.87,0,0,0-1.78-1.55,6.22,6.22,0,0,0-2.56-.49,5.79,5.79,0,0,0-2.51.5A4.71,4.71,0,0,0,1.3,89.09a5.56,5.56,0,0,0-1,2A8.55,8.55,0,0,0,0,93.4a8.39,8.39,0,0,0,.32,2.32,5.43,5.43,0,0,0,1,2A4.84,4.84,0,0,0,3,99a5.87,5.87,0,0,0,2.52.5,10,10,0,0,0,1.87-.18,13.32,13.32,0,0,0,1.94-.52,1.41,1.41,0,0,0,.63-.41,2.18,2.18,0,0,0,.33-.51,1.76,1.76,0,0,0,.14-.61V93.6a1.44,1.44,0,0,0-.14-.55A1.13,1.13,0,0,0,10,92.68Z"/><path d="M23.52,89.09a4.65,4.65,0,0,0-1.63-1.35,5.12,5.12,0,0,0-2.32-.5,5.12,5.12,0,0,0-2.32.5,4.57,4.57,0,0,0-1.63,1.35,6.09,6.09,0,0,0-1,2,8.55,8.55,0,0,0-.32,2.35,8.39,8.39,0,0,0,.32,2.32,5.94,5.94,0,0,0,1,2A4.7,4.7,0,0,0,17.25,99a5.12,5.12,0,0,0,2.32.5,5.12,5.12,0,0,0,2.32-.5,4.79,4.79,0,0,0,1.63-1.36,5.94,5.94,0,0,0,1-2,8.39,8.39,0,0,0,.32-2.32,8.55,8.55,0,0,0-.32-2.35A6.09,6.09,0,0,0,23.52,89.09Zm-1.33,5.66A4,4,0,0,1,21.75,96a2.73,2.73,0,0,1-.85.94,2.59,2.59,0,0,1-2.67,0A2.68,2.68,0,0,1,17.4,96,4,4,0,0,1,17,94.75a7,7,0,0,1-.13-1.35A7.29,7.29,0,0,1,17,92a4,4,0,0,1,.44-1.28,2.71,2.71,0,0,1,.83-1,2.59,2.59,0,0,1,2.67,0,2.77,2.77,0,0,1,.85,1A4,4,0,0,1,22.19,92a7.32,7.32,0,0,1,.14,1.37A7,7,0,0,1,22.19,94.75Z"/><path d="M36.49,99a1.3,1.3,0,0,0,.22-.75,1.34,1.34,0,0,0-.22-.75.75.75,0,0,0-.67-.35H31.27V88.27a.67.67,0,0,0-.19-.47,1.08,1.08,0,0,0-.46-.28,1.89,1.89,0,0,0-.6-.09,1.63,1.63,0,0,0-.59.1,1.1,1.1,0,0,0-.46.29.65.65,0,0,0-.19.47v10a1.44,1.44,0,0,0,.14.55,1.16,1.16,0,0,0,.33.38,1,1,0,0,0,.63.17h5.95A.74.74,0,0,0,36.49,99Z"/><path d="M47.46,97.15H42.91V88.27a.63.63,0,0,0-.19-.47,1,1,0,0,0-.46-.28,1.87,1.87,0,0,0-.59-.09,1.64,1.64,0,0,0-.6.1,1.1,1.1,0,0,0-.46.29.64.64,0,0,0-.18.47v10a1.43,1.43,0,0,0,.13.55,1.45,1.45,0,0,0,.33.38,1,1,0,0,0,.63.17h5.95a.72.72,0,0,0,.66-.35,1.3,1.3,0,0,0,.22-.75,1.34,1.34,0,0,0-.22-.75A.74.74,0,0,0,47.46,97.15Z"/><path d="M62.94,98.65a.57.57,0,0,0,0-.48l-3.84-9.81a1.59,1.59,0,0,0-.36-.54,2,2,0,0,0-.41-.28,1.52,1.52,0,0,0-.5-.12h-.6a1.47,1.47,0,0,0-.49.12,2,2,0,0,0-.42.28,1.44,1.44,0,0,0-.35.54L52.16,98.2a.6.6,0,0,0,0,.49,1,1,0,0,0,.35.37,1.63,1.63,0,0,0,.55.23,1.85,1.85,0,0,0,.62,0,1.4,1.4,0,0,0,.55-.15.7.7,0,0,0,.33-.39l.91-2.39h4.18l.93,2.48a.63.63,0,0,0,.34.34,1.18,1.18,0,0,0,.53.12,2.16,2.16,0,0,0,.61-.07A2.21,2.21,0,0,0,62.6,99,1.1,1.1,0,0,0,62.94,98.65Zm-6.63-4.46,1.24-3.32,1.26,3.32Z"/><path d="M75.54,89.05a5,5,0,0,0-1.86-1.21A7.56,7.56,0,0,0,71,87.42H68.22a1,1,0,0,0-.63.17,1.07,1.07,0,0,0-.33.38,1.35,1.35,0,0,0-.14.54v9.74a1.44,1.44,0,0,0,.14.55,1.16,1.16,0,0,0,.33.38,1,1,0,0,0,.63.17H71a7.45,7.45,0,0,0,2.62-.43,5,5,0,0,0,1.87-1.22,5,5,0,0,0,1.13-1.88A7.44,7.44,0,0,0,77,93.4a7.85,7.85,0,0,0-.37-2.46A5,5,0,0,0,75.54,89.05Zm-1.13,5.53a3.71,3.71,0,0,1-.52,1.23,3.08,3.08,0,0,1-1,1,3.32,3.32,0,0,1-1.7.38H69.61V89.61h1.55a3.42,3.42,0,0,1,1.7.38,3,3,0,0,1,1,1,3.62,3.62,0,0,1,.52,1.23,6.13,6.13,0,0,1,.13,1.23A5.82,5.82,0,0,1,74.41,94.58Z"/><path d="M87.47,94.37a4.19,4.19,0,0,0,1-.43,2.78,2.78,0,0,0,.74-.67,3.32,3.32,0,0,0,.48-1A4.39,4.39,0,0,0,89.82,91a3.88,3.88,0,0,0-.35-1.74,2.89,2.89,0,0,0-1-1.12,3.62,3.62,0,0,0-1.4-.59,7.72,7.72,0,0,0-1.7-.17H82.1a1,1,0,0,0-.63.18,1.07,1.07,0,0,0-.33.38,1.4,1.4,0,0,0-.14.55v10a.62.62,0,0,0,.19.48,1,1,0,0,0,.46.29,1.63,1.63,0,0,0,.59.1,1.89,1.89,0,0,0,.6-.09A1.08,1.08,0,0,0,83.3,99a.64.64,0,0,0,.18-.47V94.63h1.43l2.19,4a2,2,0,0,0,.32.38,1.61,1.61,0,0,0,.38.27,1.2,1.2,0,0,0,.55.12h.94a.83.83,0,0,0,.45-.13.49.49,0,0,0,.2-.28.82.82,0,0,0-.16-.55Zm-.31-2.63a1.29,1.29,0,0,1-.45.42,1.82,1.82,0,0,1-.58.21,3.13,3.13,0,0,1-.59,0H83.48V89.61h2.06a3.19,3.19,0,0,1,.59.06,1.64,1.64,0,0,1,.58.23,1.45,1.45,0,0,1,.45.44,1.23,1.23,0,0,1,.18.7A1.21,1.21,0,0,1,87.16,91.74Z"/><path d="M101.78,97.15H96.51V94.26h4.84a.72.72,0,0,0,.66-.34,1.41,1.41,0,0,0,0-1.51.74.74,0,0,0-.67-.34H96.51V89.61h5.13a.73.73,0,0,0,.66-.34,1.41,1.41,0,0,0,0-1.51.74.74,0,0,0-.67-.34h-6.5a1,1,0,0,0-.63.17,1.07,1.07,0,0,0-.33.38,1.2,1.2,0,0,0-.14.54v9.74a1.28,1.28,0,0,0,.14.55,1.16,1.16,0,0,0,.33.38,1,1,0,0,0,.63.17h6.66a.74.74,0,0,0,.66-.35,1.3,1.3,0,0,0,.22-.75,1.34,1.34,0,0,0-.22-.75A.75.75,0,0,0,101.78,97.15Z"/><path d="M113.47,88.36a1.58,1.58,0,0,0-.35-.54,2.3,2.3,0,0,0-.41-.28,1.52,1.52,0,0,0-.5-.12h-.6a1.47,1.47,0,0,0-.49.12,2,2,0,0,0-.42.28,1.44,1.44,0,0,0-.35.54l-3.83,9.84a.6.6,0,0,0,0,.49,1,1,0,0,0,.35.37,1.66,1.66,0,0,0,.54.23,1.91,1.91,0,0,0,.63,0,1.4,1.4,0,0,0,.55-.15.7.7,0,0,0,.33-.39l.91-2.39H114l.93,2.48a.63.63,0,0,0,.34.34,1.18,1.18,0,0,0,.53.12,2.16,2.16,0,0,0,.61-.07A2.21,2.21,0,0,0,117,99a1.1,1.1,0,0,0,.34-.38.57.57,0,0,0,0-.48Zm-2.81,5.83,1.25-3.32,1.26,3.32Z"/><path d="M132.7,87.59a1,1,0,0,0-.63-.17h-1a1.19,1.19,0,0,0-.67.17,1.66,1.66,0,0,0-.44.38,2.05,2.05,0,0,0-.31.54l-2.29,7-2.31-7a2.38,2.38,0,0,0-.31-.54,1.66,1.66,0,0,0-.44-.38,1.23,1.23,0,0,0-.68-.17h-1a1,1,0,0,0-.63.17,1.07,1.07,0,0,0-.33.38,1.35,1.35,0,0,0-.14.54v10a.65.65,0,0,0,.18.48,1.06,1.06,0,0,0,.45.29,1.66,1.66,0,0,0,.59.1,1.87,1.87,0,0,0,.59-.09,1,1,0,0,0,.46-.28.68.68,0,0,0,.17-.47V92l2,6.31a1.06,1.06,0,0,0,.54.65,1.87,1.87,0,0,0,.87.22,1.65,1.65,0,0,0,.87-.21,1.05,1.05,0,0,0,.54-.63l2-6.34v6.47a.69.69,0,0,0,.17.48,1,1,0,0,0,.46.29,1.63,1.63,0,0,0,.59.1,1.92,1.92,0,0,0,.59-.09A1,1,0,0,0,133,99a.64.64,0,0,0,.18-.47v-10A1.35,1.35,0,0,0,133,88,1.07,1.07,0,0,0,132.7,87.59Z"/><path d="M150.5,88.85a1.37,1.37,0,0,0-1.32-1H146l-1-3a1.39,1.39,0,0,0-2.65,0l-1,3h-3.2a1.39,1.39,0,0,0-.82,2.52l3,2.14a1,1,0,0,0,1.4-.22,1,1,0,0,0-.22-1.4l-1.44-1h1.77a1.4,1.4,0,0,0,1.33-1l.55-1.69.55,1.69a1.4,1.4,0,0,0,1.32,1h1.78l-1.44,1a1.39,1.39,0,0,0-.5,1.56l.52,1.63-1.25-.94a1.64,1.64,0,0,0-2,0,1,1,0,0,0-.21.21,10.75,10.75,0,0,1-5.26,3.86l-1,.34a1,1,0,0,0,.32,2,.87.87,0,0,0,.32-.06l1-.33a12.89,12.89,0,0,0,5.9-4.14l2.48,1.85a1.39,1.39,0,0,0,2.16-1.54l-1-3,2.6-1.88A1.39,1.39,0,0,0,150.5,88.85Z"/><polygon points="38.23 108.07 37.57 108.07 37.57 109.32 34.92 109.32 34.92 109.84 41.39 109.84 41.39 109.32 38.23 109.32 38.23 108.07"/><polygon points="36.35 112.22 40.6 112.22 40.6 110.5 35.68 110.5 35.68 111.02 39.95 111.02 39.95 111.74 35.7 111.74 35.7 113.54 40.78 113.54 40.78 113.02 36.35 113.02 36.35 112.22"/><path d="M40.43,108.91a8.07,8.07,0,0,0,.14-1.7v-.47H35.68v.53h4.24a8.23,8.23,0,0,1-.13,1.58Z"/><polygon points="63.38 106.45 62.72 106.45 62.72 113.64 63.38 113.64 63.38 109.85 64.55 109.85 64.55 109.3 63.38 109.3 63.38 106.45"/><path d="M58.79,111.36V109.7h2.58v-2.58H58.12v.54h2.6v1.5H58.15v2.74h.57a18.28,18.28,0,0,0,3.44-.25l-.07-.55A16.07,16.07,0,0,1,58.79,111.36Z"/><polygon points="86.47 107.66 86.47 107.11 81.62 107.11 81.62 110.43 86.55 110.43 86.55 109.89 82.27 109.89 82.27 107.66 86.47 107.66"/><rect x="80.79" y="112.12" width="6.51" height="0.54"/><rect x="108.97" y="106.46" width="0.66" height="4.25"/><path d="M108.1,109.61a19.87,19.87,0,0,1-3.34.22v-1h2.6v-2h-3.27v.53h2.62v.92h-2.59v2h.57a19.29,19.29,0,0,0,3.48-.24Z"/><path d="M105,113.53h4.64v-2.42H105Zm.64-1.9H109V113h-3.36Z"/></g></g></svg>