<svg xmlns="http://www.w3.org/2000/svg" viewBox="0 0 132.86 35.2"><defs><style>.cls-1{fill:#460e51;}.cls-2{fill:#7d00d4;}</style></defs><g id="레이어_2" data-name="레이어 2"><g id="레이어_2-2" data-name="레이어 2"><path class="cls-1" d="M4,35.2a4,4,0,0,1-4-4V4A4,4,0,0,1,4,0h.07A4,4,0,0,1,6.76,1L20.34,12.93A1.24,1.24,0,0,1,18.7,14.8L5.11,2.87a1.53,1.53,0,0,0-1-.39H4A1.54,1.54,0,0,0,2.48,4V31.18A1.53,1.53,0,0,0,4,32.71a1.51,1.51,0,0,0,1-.38L21.78,17a1.25,1.25,0,1,1,1.68,1.84L6.69,34.18A4,4,0,0,1,4,35.2Z"/><path class="cls-2" d="M28.94,22.33a1.24,1.24,0,0,1-.73-.23l-4.63-3.32H12.25a1.25,1.25,0,0,1,0-2.49H24a1.3,1.3,0,0,1,.73.24l3.95,2.83,1.69-2.3a1.07,1.07,0,0,1,.26-.26,2,2,0,0,1,2.33,0l1,.74L33.5,16.2a1.68,1.68,0,0,1,.61-1.87l1.2-.87H33.82a1.68,1.68,0,0,1-1.59-1.15l-.45-1.42-.46,1.42a1.68,1.68,0,0,1-1.59,1.15H28.24l1.2.88a1.24,1.24,0,1,1-1.46,2L24.75,14a1.67,1.67,0,0,1,1-3h3.39l1.06-3.24a1.66,1.66,0,0,1,1.59-1.15h0a1.65,1.65,0,0,1,1.58,1.15l1,3.24h3.4a1.67,1.67,0,0,1,1,3l-2.75,2,1,3.2a1.67,1.67,0,0,1-2.59,1.86l-2.59-1.93-2,2.69A1.21,1.21,0,0,1,28.94,22.33Zm7-3.26Z"/><path class="cls-1" d="M54.2,5.39a1.73,1.73,0,0,0-.86-.73A3.16,3.16,0,0,0,52,4.41a2.79,2.79,0,0,0-1.51.37,2.94,2.94,0,0,0-.94,1A3.89,3.89,0,0,0,49.1,7,7.32,7.32,0,0,0,49,8.37a7,7,0,0,0,.14,1.35A3.8,3.8,0,0,0,49.58,11a2.76,2.76,0,0,0,1,.94,2.81,2.81,0,0,0,1.52.37,5.21,5.21,0,0,0,1.4-.17,3.91,3.91,0,0,0,1-.4v-2H52.69A.73.73,0,0,1,52,9.35a1.43,1.43,0,0,1-.22-.76A1.41,1.41,0,0,1,52,7.83a.75.75,0,0,1,.67-.35h3.12a1,1,0,0,1,.63.17,1.45,1.45,0,0,1,.33.38,1.43,1.43,0,0,1,.13.55v3.7a1.85,1.85,0,0,1-.13.61,2.69,2.69,0,0,1-.33.5,1.44,1.44,0,0,1-.63.41,13.74,13.74,0,0,1-1.94.53A11,11,0,0,1,52,14.5a5.71,5.71,0,0,1-2.51-.5,4.71,4.71,0,0,1-1.72-1.35,5.53,5.53,0,0,1-1-2,8.68,8.68,0,0,1,0-4.67,5.58,5.58,0,0,1,1-2,4.76,4.76,0,0,1,1.71-1.35A5.68,5.68,0,0,1,52,2.22a6.44,6.44,0,0,1,2.57.48,4,4,0,0,1,1.78,1.56,1.44,1.44,0,0,1,.18.75,1,1,0,0,1-.2.56,1,1,0,0,1-.46.34,1.51,1.51,0,0,1-.59.11,1.42,1.42,0,0,1-.59-.17A1.24,1.24,0,0,1,54.2,5.39Z"/><path class="cls-1" d="M71.27,8.37A8.46,8.46,0,0,1,71,10.7a6,6,0,0,1-1,2A4.57,4.57,0,0,1,68.35,14a5.61,5.61,0,0,1-4.63,0,4.6,4.6,0,0,1-1.64-1.35,5.83,5.83,0,0,1-1-2,8.43,8.43,0,0,1,0-4.67,5.88,5.88,0,0,1,1-2,4.6,4.6,0,0,1,1.64-1.35,5.61,5.61,0,0,1,4.63,0A4.57,4.57,0,0,1,70,4.07a6.09,6.09,0,0,1,1,2A8.53,8.53,0,0,1,71.27,8.37Zm-2.48,0A7.26,7.26,0,0,0,68.66,7a4.31,4.31,0,0,0-.45-1.28,2.68,2.68,0,0,0-.85-1,2.58,2.58,0,0,0-2.66,0,2.65,2.65,0,0,0-.84,1A4.3,4.3,0,0,0,63.42,7a7.26,7.26,0,0,0-.13,1.36,7,7,0,0,0,.13,1.35A4.24,4.24,0,0,0,63.86,11a2.71,2.71,0,0,0,.84.94,2.58,2.58,0,0,0,2.66,0,2.73,2.73,0,0,0,.85-.94,4.25,4.25,0,0,0,.45-1.27A7,7,0,0,0,68.79,8.37Z"/><path class="cls-1" d="M77.78,14.33a1,1,0,0,1-.63-.18,1.13,1.13,0,0,1-.33-.37,1.44,1.44,0,0,1-.14-.55v-10a.65.65,0,0,1,.19-.48,1.12,1.12,0,0,1,.46-.28,1.63,1.63,0,0,1,.59-.1,1.89,1.89,0,0,1,.6.09,1.08,1.08,0,0,1,.46.28.66.66,0,0,1,.18.47v8.88h4.56a.76.76,0,0,1,.67.34,1.41,1.41,0,0,1,0,1.51.74.74,0,0,1-.66.35Z"/><path class="cls-1" d="M90.55,14.4a1,1,0,0,1-.63-.17,1.07,1.07,0,0,1-.33-.38,1.21,1.21,0,0,1-.14-.55v-10a.68.68,0,0,1,.18-.48,1.16,1.16,0,0,1,.46-.29,1.93,1.93,0,0,1,.6-.1,2,2,0,0,1,.6.09,1.27,1.27,0,0,1,.46.28.67.67,0,0,1,.18.47v8.89h4.55a.75.75,0,0,1,.68.34,1.41,1.41,0,0,1,0,1.51.73.73,0,0,1-.66.34Z"/><path class="cls-1" d="M106.66,3.34A1.3,1.3,0,0,1,107,2.8a1.71,1.71,0,0,1,.42-.28,1.26,1.26,0,0,1,.49-.12h.61a1.3,1.3,0,0,1,.49.12,1.66,1.66,0,0,1,.41.28,1.41,1.41,0,0,1,.36.54l3.84,9.81a.57.57,0,0,1,0,.48.92.92,0,0,1-.34.37,1.56,1.56,0,0,1-.54.24,2.16,2.16,0,0,1-.6.08,1.34,1.34,0,0,1-.54-.12.61.61,0,0,1-.33-.34l-.94-2.48h-4.18l-.91,2.38a.64.64,0,0,1-.33.39,1.36,1.36,0,0,1-.55.16,1.86,1.86,0,0,1-.62-.05,1.71,1.71,0,0,1-.55-.22.92.92,0,0,1-.34-.37.55.55,0,0,1,0-.5ZM107,9.17h2.51l-1.27-3.32Z"/><path class="cls-2" d="M51.37,19.15a7.56,7.56,0,0,1,2.65.42,5,5,0,0,1,1.86,1.21A4.83,4.83,0,0,1,57,22.67a8.26,8.26,0,0,1,0,4.89,5,5,0,0,1-1.13,1.87A5.11,5.11,0,0,1,54,30.65a7.23,7.23,0,0,1-2.62.43H48.56a1,1,0,0,1-.63-.17,1.16,1.16,0,0,1-.33-.38,1.4,1.4,0,0,1-.14-.55V20.25a1.35,1.35,0,0,1,.14-.55,1.07,1.07,0,0,1,.33-.38,1,1,0,0,1,.63-.17Zm3.51,6a6.13,6.13,0,0,0-.13-1.23,3.71,3.71,0,0,0-.52-1.23,3,3,0,0,0-1-1,3.42,3.42,0,0,0-1.7-.38H50v7.55H51.5a3.32,3.32,0,0,0,1.7-.39,2.89,2.89,0,0,0,1-1,3.71,3.71,0,0,0,.52-1.23A5.82,5.82,0,0,0,54.88,25.13Z"/><path class="cls-2" d="M61.79,20.26a1.44,1.44,0,0,1,.14-.55,1.16,1.16,0,0,1,.33-.38,1,1,0,0,1,.63-.18h3.32a8.55,8.55,0,0,1,1.71.17,3.75,3.75,0,0,1,1.4.59A3,3,0,0,1,70.26,21a3.88,3.88,0,0,1,.35,1.74A4.39,4.39,0,0,1,70.44,24,2.88,2.88,0,0,1,70,25a2.78,2.78,0,0,1-.74.67,4.31,4.31,0,0,1-1,.43l2.3,4a.82.82,0,0,1,.16.55.47.47,0,0,1-.2.29.93.93,0,0,1-.45.12h-.94A1.13,1.13,0,0,1,68.6,31a1.28,1.28,0,0,1-.39-.27,1.47,1.47,0,0,1-.31-.38l-2.2-3.95H64.28v3.88a.67.67,0,0,1-.19.48,1.17,1.17,0,0,1-.46.27,1.89,1.89,0,0,1-.6.09,1.63,1.63,0,0,1-.59-.1,1.1,1.1,0,0,1-.46-.29.65.65,0,0,1-.19-.47Zm6.34,2.51a1.25,1.25,0,0,0-.18-.7,1.54,1.54,0,0,0-.44-.44,2,2,0,0,0-.59-.23,3.11,3.11,0,0,0-.59-.06h-2v2.81h2a3.07,3.07,0,0,0,.59,0,2,2,0,0,0,.59-.21,1.43,1.43,0,0,0,.44-.41A1.27,1.27,0,0,0,68.13,22.77Z"/><path class="cls-2" d="M77.78,31.08a1,1,0,0,1-.63-.17,1.16,1.16,0,0,1-.33-.38,1.4,1.4,0,0,1-.14-.55V20.25a1.35,1.35,0,0,1,.14-.55,1.07,1.07,0,0,1,.33-.38,1,1,0,0,1,.63-.17h6.5a.74.74,0,0,1,.67.34A1.41,1.41,0,0,1,85,21a.73.73,0,0,1-.66.34H79.16V23.8H84a.73.73,0,0,1,.67.34,1.41,1.41,0,0,1,0,1.51A.71.71,0,0,1,84,26H79.16v2.9h5.27a.73.73,0,0,1,.67.34,1.41,1.41,0,0,1,0,1.51.73.73,0,0,1-.66.34Z"/><path class="cls-2" d="M92.77,20.1a1.41,1.41,0,0,1,.35-.55,2,2,0,0,1,.42-.28,1.47,1.47,0,0,1,.49-.12h.61a1.47,1.47,0,0,1,.49.12,1.76,1.76,0,0,1,.41.28,1.54,1.54,0,0,1,.36.55l3.84,9.8a.57.57,0,0,1,0,.48.94.94,0,0,1-.34.38,1.92,1.92,0,0,1-.54.24,2.13,2.13,0,0,1-.6.07A1.33,1.33,0,0,1,97.7,31a.63.63,0,0,1-.33-.35l-.94-2.48H92.25l-.9,2.39a.76.76,0,0,1-.34.39,1.36,1.36,0,0,1-.55.15,1.87,1.87,0,0,1-.62,0,1.72,1.72,0,0,1-.55-.23.86.86,0,0,1-.34-.37.53.53,0,0,1,0-.49Zm.32,5.82H95.6L94.33,22.6Z"/><path class="cls-2" d="M111.63,20.25a2.29,2.29,0,0,1,.33-.55,1.76,1.76,0,0,1,.46-.38,1.43,1.43,0,0,1,.71-.17h1.08a1.11,1.11,0,0,1,.66.17,1.14,1.14,0,0,1,.35.38,1.35,1.35,0,0,1,.14.55v10a.63.63,0,0,1-.19.48,1.14,1.14,0,0,1-.47.27,2.06,2.06,0,0,1-.62.09,1.79,1.79,0,0,1-.62-.1,1.07,1.07,0,0,1-.47-.29.61.61,0,0,1-.19-.47V23.74l-2.1,6.34a1.15,1.15,0,0,1-.57.64,1.93,1.93,0,0,1-.92.2,2,2,0,0,1-.91-.22,1,1,0,0,1-.57-.65l-2.08-6.31v6.5a.66.66,0,0,1-.18.48A1.25,1.25,0,0,1,105,31a2.06,2.06,0,0,1-.62.09,1.83,1.83,0,0,1-.62-.1,1.07,1.07,0,0,1-.47-.29.61.61,0,0,1-.19-.47v-10a1.35,1.35,0,0,1,.14-.55,1.25,1.25,0,0,1,.35-.38,1.11,1.11,0,0,1,.66-.17h1.07a1.37,1.37,0,0,1,.7.17,1.48,1.48,0,0,1,.46.38,2,2,0,0,1,.34.55l2.42,7Z"/><path class="cls-2" d="M118.82,31.27a1,1,0,0,1-.32-1.95l1-.34a10.75,10.75,0,0,0,5.26-3.86,1,1,0,0,1,.21-.21,1.64,1.64,0,0,1,2,0l1.25.94-.53-1.63a1.41,1.41,0,0,1,.51-1.56l1.44-1h-1.78a1.4,1.4,0,0,1-1.33-1L125.94,19l-.54,1.69a1.41,1.41,0,0,1-1.33,1h-1.78l1.44,1a1,1,0,0,1,.22,1.4,1,1,0,0,1-1.39.22l-3-2.14a1.4,1.4,0,0,1,.82-2.52h3.21l1-3.05a1.39,1.39,0,0,1,2.65,0l1,3.05h3.21a1.39,1.39,0,0,1,.81,2.52L129.69,24l1,3a1.39,1.39,0,0,1-2.15,1.54L126,26.74a12.79,12.79,0,0,1-5.9,4.14l-1,.34A1.25,1.25,0,0,1,118.82,31.27Z"/></g></g></svg>