<svg id="레이어_5" data-name="레이어 5" xmlns="http://www.w3.org/2000/svg" viewBox="0 0 24 24"><defs><style>.cls-1{fill:#7d00d4;}.cls-2{fill:#fffbe9;}</style></defs><rect class="cls-1" width="24" height="24"/><path class="cls-2" d="M20.85,9.46a.74.74,0,0,0-.71-.52H18.61l-.48-1.45A.74.74,0,0,0,17.42,7h0a.75.75,0,0,0-.72.52l-.47,1.45H14.7a.75.75,0,0,0-.72.52.74.74,0,0,0,.28.84l1.45,1.06a.56.56,0,0,0,.66-.9l-.54-.4h.67a.65.65,0,0,0,.71-.52l.21-.63.21.63a.74.74,0,0,0,.71.52H19l-.54.4a.73.73,0,0,0-.27.84l.19.6-.45-.34a.89.89,0,0,0-1.05,0l-.11.12-.76,1-1.79-1.28a.51.51,0,0,0-.32-.1H8.63a.56.56,0,0,0,0,1.12H12l-6.67,6.1a.66.66,0,0,1-.45.17A.69.69,0,0,1,4.23,18V5.81a.69.69,0,0,1,.69-.69H5a.71.71,0,0,1,.46.17l6.12,5.37a.56.56,0,0,0,.79-.05.57.57,0,0,0-.05-.79L6.15,4.46A1.78,1.78,0,0,0,5,4h0A1.81,1.81,0,0,0,3.11,5.81V18a1.81,1.81,0,0,0,3,1.35l7.55-6.91,0,0h0L15.81,14a.59.59,0,0,0,.33.11.56.56,0,0,0,.45-.23l.89-1.21,1.16.86a.75.75,0,0,0,1.17-.83l-.47-1.45,1.24-.9A.74.74,0,0,0,20.85,9.46Z"/></svg>