<svg xmlns="http://www.w3.org/2000/svg" viewBox="0 0 155.97 80"><defs><style>.cls-1{fill:#8a31c5;}.cls-2{fill:#400086;}</style></defs><g id="레이어_2" data-name="레이어 2"><g id="레이어_1-2" data-name="레이어 1"><path class="cls-1" d="M103.86,13.5V12.24c0-2.09,1.58-2.77,3.28-2.77s3.29.71,3.29,2.77V13.5H122a2.17,2.17,0,0,1,2.32,2.32A2.16,2.16,0,0,1,122,18.14H96.51a2.16,2.16,0,0,1-2.32-2.32,2.17,2.17,0,0,1,2.32-2.32Zm-4.71,19a3.88,3.88,0,0,1-4.06-4.19v-.09c0-2.26,1.26-3.9,4.06-3.9h17.24v-.68c0-.29-.19-.52-.67-.52H97.25a1.8,1.8,0,0,1-1.84-1.8,1.77,1.77,0,0,1,1.84-1.84h22.17c2.74,0,3.61,1,3.61,3v5.16h-20.4a.56.56,0,0,0-.61.61.53.53,0,0,0,.61.58h19.56a1.67,1.67,0,0,1,1.74,1.83,1.72,1.72,0,0,1-1.74,1.84ZM98.31,7.76c-2.09,0-3-1.06-3-2.54s.84-2.52,3-2.52h20c3.13,0,4.32,1.32,4.32,3.64V7.47a15.61,15.61,0,0,1-.74,5.09h-6.32a10.29,10.29,0,0,0,.65-3.67V8.41c0-.49-.23-.65-.81-.65Z"/><path class="cls-1" d="M131.29,24.52c0,1.13.35,1.38,1.48,1.38h9a2.63,2.63,0,1,1,0,5.26H130.45c-4,0-5.58-1.45-5.58-5.48V19.81c0-4,1.55-5.41,5.58-5.41h5.41V9.73c0-.42-.13-.91-.87-.91h-7.05a2.54,2.54,0,0,1-2.74-2.67,2.57,2.57,0,0,1,2.74-2.71h8.7c4.44,0,5.64,1.26,5.64,4.93V19.65h-9.51c-1.13,0-1.48.26-1.48,1.39ZM146,5.38a3,3,0,0,1,3.19-3.13,3,3,0,0,1,3.19,3.13v8.15h1.07c2,0,2.54,1.51,2.54,2.8s-.61,2.81-2.54,2.81h-1.07V32.51H146Z"/><path class="cls-2" d="M121.58,58.65a2.73,2.73,0,1,1,0,5.45H97a2.73,2.73,0,1,1,0-5.45Zm-1.9-23.14a2.46,2.46,0,0,1,2.48,2.71,2.46,2.46,0,0,1-2.48,2.68H103.37c-.67,0-.9.19-.9.87v5c0,.68.23.9.9.9H120.2a2.7,2.7,0,0,1,0,5.38H101.08c-3.86,0-5.18-1.38-5.18-5.12V40.61c0-3.71,1.32-5.1,5.18-5.1Z"/><path class="cls-2" d="M129.71,51.89a4.85,4.85,0,0,1-5-5.13v-.61c0-2.74,1.71-4.64,5-4.64h6.51v-1.1c0-.42-.23-.61-.81-.61H127a2.11,2.11,0,0,1-2.16-2.22A2.13,2.13,0,0,1,127,35.29h11c3.29,0,4.61,1.64,4.61,4.06V45.7H132.16a.74.74,0,0,0-.84.77v.16c0,.42.26.74.84.74h11.15a2.12,2.12,0,0,1,2.12,2.29,2,2,0,0,1-2.12,2.23Zm1.06,12.85c-3.9,0-4.61-1.16-4.61-4.89V58.11c0-3.74.71-4.9,4.61-4.9h18.08c3.9,0,4.61,1.16,4.61,4.9v6.63Zm2.52-4.41h13.82V58.56c0-.58-.16-1-.81-1h-13c-.65,0-.78.39-.78,1v.77C132.51,60,132.64,60.33,133.29,60.33Zm13.5-22.66A3.07,3.07,0,0,1,150,34.48a3.11,3.11,0,0,1,3.26,3.19V52.21h-6.51Z"/><path class="cls-2" d="M72.94,0H7.06A7.06,7.06,0,0,0,0,7.06V72.94A7.06,7.06,0,0,0,7.06,80H72.94A7.06,7.06,0,0,0,80,72.94V7.06A7.06,7.06,0,0,0,72.94,0ZM9.27,13.87V11.13A1.14,1.14,0,0,1,10.41,10h7.73a1.13,1.13,0,0,1,1.13,1.13v2.74A1.13,1.13,0,0,1,18.14,15H10.41A1.14,1.14,0,0,1,9.27,13.87ZM40,65A25,25,0,1,1,65,40,25,25,0,0,1,40,65Zm30.53-.93L69.14,66a1,1,0,0,0-.2.61V69a1.05,1.05,0,0,1-1.37,1l-2.25-.73a1,1,0,0,0-.64,0L62.43,70a1.05,1.05,0,0,1-1.37-1V66.59a1,1,0,0,0-.2-.61l-1.38-1.91A1,1,0,0,1,60,62.46l2.24-.73a1.07,1.07,0,0,0,.53-.38l1.38-1.91a1,1,0,0,1,1.7,0l1.38,1.91a1.07,1.07,0,0,0,.53.38l2.24.73A1,1,0,0,1,70.53,64.07Z"/><path class="cls-1" d="M41.08,31.93A1,1,0,0,0,40,30.85c-1.08,0-1.08.79-1.08,1.08A5.54,5.54,0,0,0,40,34.74,5.54,5.54,0,0,0,41.08,31.93Z"/><polygon class="cls-1" points="50.22 48.61 40 40.94 29.78 48.61 50.22 48.61"/><path class="cls-1" d="M40,58.75a18.64,18.64,0,0,0,14.06-6.38H25.94A18.66,18.66,0,0,0,40,58.75Z"/><path class="cls-1" d="M40,21.25A18.74,18.74,0,0,0,23.39,48.69l14.74-11a9.74,9.74,0,0,1-2.43-5.71,4.3,4.3,0,1,1,8.6,0,9.74,9.74,0,0,1-2.43,5.71l14.74,11A18.74,18.74,0,0,0,40,21.25Z"/><path class="cls-1" d="M97.61,71.39l.72,1a.63.63,0,0,0,.28.2l1.17.38a.54.54,0,0,1,.27.84l-.72,1a.54.54,0,0,0-.11.32v1.23a.55.55,0,0,1-.71.52l-1.17-.38a.5.5,0,0,0-.34,0l-1.17.38a.55.55,0,0,1-.71-.52V75.11a.6.6,0,0,0-.1-.32l-.73-1a.55.55,0,0,1,.28-.84l1.17-.38a.6.6,0,0,0,.27-.2l.72-1A.54.54,0,0,1,97.61,71.39Z"/><path class="cls-1" d="M150.19,71.39l.72,1a.6.6,0,0,0,.27.2l1.17.38a.54.54,0,0,1,.27.84l-.72,1a.53.53,0,0,0-.1.32v1.23a.55.55,0,0,1-.71.52l-1.17-.38a.5.5,0,0,0-.34,0l-1.17.38a.55.55,0,0,1-.71-.52V75.11a.54.54,0,0,0-.11-.32l-.72-1a.54.54,0,0,1,.27-.84l1.17-.38a.55.55,0,0,0,.27-.2l.73-1A.54.54,0,0,1,150.19,71.39Z"/><path class="cls-1" d="M137,71.39l.73,1a.55.55,0,0,0,.27.2l1.17.38a.54.54,0,0,1,.27.84l-.72,1a.54.54,0,0,0-.11.32v1.23a.55.55,0,0,1-.71.52l-1.17-.38a.47.47,0,0,0-.33,0l-1.17.38a.55.55,0,0,1-.72-.52V75.11a.53.53,0,0,0-.1-.32l-.72-1A.54.54,0,0,1,134,73l1.17-.38a.6.6,0,0,0,.27-.2l.72-1A.54.54,0,0,1,137,71.39Z"/><path class="cls-1" d="M123.9,71.39l.72,1a.66.66,0,0,0,.27.2l1.17.38a.55.55,0,0,1,.28.84l-.73,1a.6.6,0,0,0-.1.32v1.23a.55.55,0,0,1-.71.52l-1.17-.38a.5.5,0,0,0-.34,0l-1.17.38a.55.55,0,0,1-.71-.52V75.11a.6.6,0,0,0-.1-.32l-.73-1a.55.55,0,0,1,.27-.84l1.17-.38a.63.63,0,0,0,.28-.2l.72-1A.54.54,0,0,1,123.9,71.39Z"/><path class="cls-1" d="M110.76,71.39l.72,1a.6.6,0,0,0,.27.2l1.17.38a.54.54,0,0,1,.27.84l-.72,1a.53.53,0,0,0-.1.32v1.23a.55.55,0,0,1-.72.52l-1.17-.38a.47.47,0,0,0-.33,0l-1.17.38a.55.55,0,0,1-.72-.52V75.11a.53.53,0,0,0-.1-.32l-.72-1a.54.54,0,0,1,.27-.84l1.17-.38a.6.6,0,0,0,.27-.2l.72-1A.55.55,0,0,1,110.76,71.39Z"/></g></g></svg>