<svg xmlns="http://www.w3.org/2000/svg" xmlns:xlink="http://www.w3.org/1999/xlink" viewBox="0 0 24 24"><defs><style>.cls-1{fill:none;}.cls-2,.cls-3{fill:#400086;}.cls-3{opacity:0.2;}.cls-4{fill:#8a31c5;}</style><symbol id="material_system_icon_border" data-name="material_system_icon_border" viewBox="0 0 48 48"><rect class="cls-1" width="48" height="48"/></symbol></defs><g id="border"><use width="48" height="48" transform="translate(0 0) scale(0.5)" xlink:href="#material_system_icon_border"/></g><g id="레이어_5" data-name="레이어 5"><path class="cls-2" d="M19,3H5A2,2,0,0,0,3,5V19a2,2,0,0,0,2,2H19a2,2,0,0,0,2-2V5A2,2,0,0,0,19,3ZM5,6.12V5.5a.26.26,0,0,1,.26-.25H7a.25.25,0,0,1,.25.25v.62A.26.26,0,0,1,7,6.38H5.27A.26.26,0,0,1,5,6.12Zm6.92,11.5A5.62,5.62,0,1,1,17.55,12,5.62,5.62,0,0,1,11.93,17.62Zm6.87-.2-.32.43a.2.2,0,0,0,0,.13v.53a.24.24,0,0,1-.31.23l-.5-.17a.38.38,0,0,0-.15,0l-.51.17a.23.23,0,0,1-.3-.23V18a.21.21,0,0,0-.05-.13l-.31-.43a.25.25,0,0,1,.12-.37l.5-.16a.27.27,0,0,0,.12-.09l.31-.43a.23.23,0,0,1,.38,0l.32.43a.24.24,0,0,0,.11.09l.51.16A.25.25,0,0,1,18.8,17.42Z"/><path class="cls-3" d="M19,3H5A2,2,0,0,0,3,5V19a2,2,0,0,0,2,2H19a2,2,0,0,0,2-2V5A2,2,0,0,0,19,3ZM5,6.12V5.5a.26.26,0,0,1,.26-.25H7a.25.25,0,0,1,.25.25v.62A.26.26,0,0,1,7,6.38H5.27A.26.26,0,0,1,5,6.12Zm6.92,11.5A5.62,5.62,0,1,1,17.55,12,5.62,5.62,0,0,1,11.93,17.62Zm6.87-.2-.32.43a.2.2,0,0,0,0,.13v.53a.24.24,0,0,1-.31.23l-.5-.17a.38.38,0,0,0-.15,0l-.51.17a.23.23,0,0,1-.3-.23V18a.21.21,0,0,0-.05-.13l-.31-.43a.25.25,0,0,1,.12-.37l.5-.16a.27.27,0,0,0,.12-.09l.31-.43a.23.23,0,0,1,.38,0l.32.43a.24.24,0,0,0,.11.09l.51.16A.25.25,0,0,1,18.8,17.42Z"/><path class="cls-4" d="M12.17,10.18a.21.21,0,0,0-.24-.24c-.24,0-.24.18-.24.24a1.23,1.23,0,0,0,.24.64A1.33,1.33,0,0,0,12.17,10.18Z"/><polygon class="cls-4" points="14.23 13.94 11.93 12.21 9.63 13.94 14.23 13.94"/><path class="cls-4" d="M11.93,16.22a4.19,4.19,0,0,0,3.16-1.44H8.76A4.23,4.23,0,0,0,11.93,16.22Z"/><path class="cls-4" d="M11.93,7.78A4.22,4.22,0,0,0,7.71,12,4.11,4.11,0,0,0,8.19,14l3.32-2.48A2.14,2.14,0,0,1,11,10.18a1,1,0,0,1,1.94,0,2.2,2.2,0,0,1-.55,1.29L15.66,14A4.12,4.12,0,0,0,16.15,12,4.22,4.22,0,0,0,11.93,7.78Z"/></g></svg>